####
#
#	OBJ File Generated by LightWave3D
#	LightWave3D OBJ Export v2.3
#
####
o target.obj
mtllib target.mtl
g default
v 0.021706 0.123101 -1
v 0.0427525 0.117462 -1
v 0.0625 0.108253 -1
v 0.0803485 0.0957556 -1
v 0.0957556 0.0803485 -1
v 0.108253 0.0625 -1
v 0.117462 0.0427525 -1
v 0.123101 0.021706 -1
v 0.125 0 -1
v 0.123101 -0.021706 -1
v 0.117462 -0.0427525 -1
v 0.108253 -0.0625 -1
v 0.0957556 -0.0803485 -1
v 0.0803485 -0.0957556 -1
v 0.0625 -0.108253 -1
v 0.0427525 -0.117462 -1
v 0.021706 -0.123101 -1
v -0.021706 -0.123101 -1
v -0.0427525 -0.117462 -1
v -0.0625 -0.108253 -1
v -0.0803485 -0.0957556 -1
v -0.0957556 -0.0803485 -1
v -0.108253 -0.0625 -1
v -0.117462 -0.0427525 -1
v -0.123101 -0.021706 -1
v -0.125 0 -1
v -0.123101 0.021706 -1
v -0.117462 0.0427525 -1
v -0.108253 0.0625 -1
v -0.0957556 0.0803485 -1
v -0.0803485 0.0957556 -1
v -0.0625 0.108253 -1
v -0.0427525 0.117462 -1
v -0.021706 0.123101 -1
v -0.0199629 0.113215 -1
v -0.0393193 0.108029 -1
v -0.0574809 0.0995598 -1
v -0.073896 0.0880658 -1
v -0.0880658 0.073896 -1
v -0.0995598 0.0574809 -1
v -0.108029 0.0393193 -1
v -0.113215 0.0199629 -1
v -0.114962 0 -1
v -0.113215 -0.0199629 -1
v -0.108029 -0.0393193 -1
v -0.0995598 -0.0574809 -1
v -0.0880658 -0.073896 -1
v -0.073896 -0.0880658 -1
v -0.0574809 -0.0995598 -1
v -0.0393193 -0.108029 -1
v -0.0199629 -0.113215 -1
v 0.0199629 -0.113215 -1
v 0.0393193 -0.108029 -1
v 0.0574809 -0.0995598 -1
v 0.073896 -0.0880658 -1
v 0.0880658 -0.073896 -1
v 0.0995598 -0.0574809 -1
v 0.108029 -0.0393193 -1
v 0.113215 -0.0199629 -1
v 0.114962 0 -1
v 0.113215 0.0199629 -1
v 0.108029 0.0393193 -1
v 0.0995598 0.0574809 -1
v 0.0880658 0.073896 -1
v 0.073896 0.0880658 -1
v 0.0574809 0.0995598 -1
v 0.0393193 0.108029 -1
v 0.0199629 0.113215 -1
vt 3 0
vn 0 0 1
vn 0 0 1
vn 0 0 1
vn 0 0 1
vn 0 0 1
vn 0 0 1
vn 0 0 1
vn 0 0 1
vn 0 0 1
vn 0 0 1
vn 0 0 1
vn 0 0 1
vn 0 0 1
vn 0 0 1
vn 0 0 1
vn 0 0 1
vn 0 0 1
vn 0 0 1
vn 0 0 1
vn 0 0 1
vn 0 0 1
vn 0 0 1
vn 0 0 1
vn 0 0 1
vn 0 0 1
vn 0 0 1
vn 0 0 1
vn 0 0 1
vn 0 0 1
vn 0 0 1
vn 0 0 1
vn 0 0 1
vn 0 0 1
vn 0 0 1
vn 0 0 1
vn 0 0 1
vn 0 0 1
vn 0 0 1
vn 0 0 1
vn 0 0 1
vn 0 0 1
vn 0 0 1
vn 0 0 1
vn 0 0 1
vn 0 0 1
vn 0 0 1
vn 0 0 1
vn 0 0 1
vn 0 0 1
vn 0 0 1
vn 0 0 1
vn 0 0 1
vn 0 0 1
vn 0 0 1
vn 0 0 1
vn 0 0 1
vn 0 0 1
vn 0 0 1
vn 0 0 1
vn 0 0 1
vn 0 0 1
vn 0 0 1
vn 0 0 1
vn 0 0 1
vn 0 0 1
vn 0 0 1
vn 0 0 1
vn 0 0 1
vn 0 0 1
vn 0 0 1
vn 0 0 1
vn 0 0 1
vn 0 0 1
vn 0 0 1
vn 0 0 1
vn 0 0 1
vn 0 0 1
vn 0 0 1
vn 0 0 1
vn 0 0 1
vn 0 0 1
vn 0 0 1
vn 0 0 1
vn 0 0 1
vn 0 0 1
vn 0 0 1
vn 0 0 1
vn 0 0 1
vn 0 0 1
vn 0 0 1
vn 0 0 1
vn 0 0 1
vn 0 0 1
vn 0 0 1
vn 0 0 1
vn 0 0 1
vn 0 0 1
vn 0 0 1
vn 0 0 1
vn 0 0 1
vn 0 0 1
vn 0 0 1
vn 0 0 1
vn 0 0 1
vn 0 0 1
vn 0 0 1
vn 0 0 1
vn 0 0 1
vn 0 0 1
vn 0 0 1
vn 0 0 1
vn 0 0 1
vn 0 0 1
vn 0 0 1
vn 0 0 1
vn 0 0 1
vn 0 0 1
vn 0 0 1
vn 0 0 1
vn 0 0 1
vn 0 0 1
vn 0 0 1
vn 0 0 1
vn 0 0 1
vn 0 0 1
vn 0 0 1
vn 0 0 1
vn 0 0 1
vn 0 0 1
vn 0 0 1
vn 0 0 1
vn 0 0 1
vn 0 0 1
vn 0 0 1
vn 0 0 1
vn 0 0 1
vn 0 0 1
vn 0 0 1
vn 0 0 1
vn 0 0 1
vn 0 0 1
vn 0 0 1
vn 0 0 1
vn 0 0 1
vn 0 0 1
vn 0 0 1
vn 0 0 1
vn 0 0 1
vn 0 0 1
vn 0 0 1
vn 0 0 1
vn 0 0 1
vn 0 0 1
vn 0 0 1
vn 0 0 1
vn 0 0 1
vn 0 0 1
vn 0 0 1
vn 0 0 1
vn 0 0 1
vn 0 0 1
vn 0 0 1
vn 0 0 1
vn 0 0 1
vn 0 0 1
vn 0 0 1
vn 0 0 1
vn 0 0 1
vn 0 0 1
vn 0 0 1
vn 0 0 1
vn 0 0 1
vn 0 0 1
vn 0 0 1
vn 0 0 1
vn 0 0 1
vn 0 0 1
vn 0 0 1
vn 0 0 1
vn 0 0 1
vn 0 0 1
vn 0 0 1
vn 0 0 1
vn 0 0 1
vn 0 0 1
vn 0 0 1
vn 0 0 1
vn 0 0 1
vn 0 0 1
vn 0 0 1
vn 0 0 1
vn 0 0 1
g target
usemtl target
s 1
f 1//1 68//2 67/1/3
f 2//4 1//5 67/1/6
f 3//7 2//8 67/1/9
f 3//10 67//11 66/1/12
f 3//13 66//14 65/1/15
f 4//16 3//17 65/1/18
f 4//19 65//20 5/1/21
f 5//22 65//23 64/1/24
f 5//25 64//26 6/1/27
f 6//28 64//29 63/1/30
f 6//31 63//32 62/1/33
f 7//34 6//35 62/1/36
f 7//37 62//38 8/1/39
f 8//40 62//41 61/1/42
f 8//43 61//44 60/1/45
f 9//46 8//47 60/1/48
f 60//49 59//50 10/1/51
f 9//52 60//53 10/1/54
f 10//55 59//56 58/1/57
f 10//58 58//59 11/1/60
f 58//61 57//62 12/1/63
f 11//64 58//65 12/1/66
f 12//67 57//68 56/1/69
f 12//70 56//71 13/1/72
f 13//73 56//74 55/1/75
f 13//76 55//77 14/1/78
f 55//79 54//80 15/1/81
f 14//82 55//83 15/1/84
f 54//85 53//86 15/1/87
f 15//88 53//89 16/1/90
f 53//91 52//92 17/1/93
f 16//94 53//95 17/1/96
f 50//97 19//98 18/1/99
f 51//100 50//101 18/1/102
f 50//103 49//104 20/1/105
f 50//106 20//107 19/1/108
f 48//109 21//110 20/1/111
f 49//112 48//113 20/1/114
f 47//115 22//116 48/1/117
f 48//118 22//119 21/1/120
f 46//121 23//122 47/1/123
f 47//124 23//125 22/1/126
f 45//127 24//128 23/1/129
f 46//130 45//131 23/1/132
f 44//133 25//134 45/1/135
f 45//136 25//137 24/1/138
f 43//139 26//140 25/1/141
f 44//142 43//143 25/1/144
f 27//145 26//146 43/1/147
f 42//148 27//149 43/1/150
f 41//151 28//152 27/1/153
f 41//154 27//155 42/1/156
f 29//157 28//158 41/1/159
f 40//160 29//161 41/1/162
f 39//163 30//164 29/1/165
f 39//166 29//167 40/1/168
f 38//169 31//170 30/1/171
f 38//172 30//173 39/1/174
f 32//175 31//176 38/1/177
f 37//178 32//179 38/1/180
f 33//181 32//182 36/1/183
f 36//184 32//185 37/1/186
f 34//187 33//188 36/1/189
f 35//190 34//191 36/1/192
v 0.021706 0.123101 -0.5
v 0.0427525 0.117462 -0.5
v 0.0625 0.108253 -0.5
v 0.0803485 0.0957556 -0.5
v 0.0957556 0.0803485 -0.5
v 0.108253 0.0625 -0.5
v 0.117462 0.0427525 -0.5
v 0.123101 0.021706 -0.5
v 0.125 0 -0.5
v 0.123101 -0.021706 -0.5
v 0.117462 -0.0427525 -0.5
v 0.108253 -0.0625 -0.5
v 0.0957556 -0.0803485 -0.5
v 0.0803485 -0.0957556 -0.5
v 0.0625 -0.108253 -0.5
v 0.0427525 -0.117462 -0.5
v 0.021706 -0.123101 -0.5
v -0.021706 -0.123101 -0.5
v -0.0427525 -0.117462 -0.5
v -0.0625 -0.108253 -0.5
v -0.0803485 -0.0957556 -0.5
v -0.0957556 -0.0803485 -0.5
v -0.108253 -0.0625 -0.5
v -0.117462 -0.0427525 -0.5
v -0.123101 -0.021706 -0.5
v -0.125 0 -0.5
v -0.123101 0.021706 -0.5
v -0.117462 0.0427525 -0.5
v -0.108253 0.0625 -0.5
v -0.0957556 0.0803485 -0.5
v -0.0803485 0.0957556 -0.5
v -0.0625 0.108253 -0.5
v -0.0427525 0.117462 -0.5
v -0.021706 0.123101 -0.5
v -0.0199629 0.113215 -0.5
v -0.0393193 0.108029 -0.5
v -0.0574809 0.0995598 -0.5
v -0.073896 0.0880658 -0.5
v -0.0880658 0.073896 -0.5
v -0.0995598 0.0574809 -0.5
v -0.108029 0.0393193 -0.5
v -0.113215 0.0199629 -0.5
v -0.114962 0 -0.5
v -0.113215 -0.0199629 -0.5
v -0.108029 -0.0393193 -0.5
v -0.0995598 -0.0574809 -0.5
v -0.0880658 -0.073896 -0.5
v -0.073896 -0.0880658 -0.5
v -0.0574809 -0.0995598 -0.5
v -0.0393193 -0.108029 -0.5
v -0.0199629 -0.113215 -0.5
v 0.0199629 -0.113215 -0.5
v 0.0393193 -0.108029 -0.5
v 0.0574809 -0.0995598 -0.5
v 0.073896 -0.0880658 -0.5
v 0.0880658 -0.073896 -0.5
v 0.0995598 -0.0574809 -0.5
v 0.108029 -0.0393193 -0.5
v 0.113215 -0.0199629 -0.5
v 0.114962 0 -0.5
v 0.113215 0.0199629 -0.5
v 0.108029 0.0393193 -0.5
v 0.0995598 0.0574809 -0.5
v 0.0880658 0.073896 -0.5
v 0.073896 0.0880658 -0.5
v 0.0574809 0.0995598 -0.5
v 0.0393193 0.108029 -0.5
v 0.0199629 0.113215 -0.5
vt 3 0
vn 0 0 1
vn 0 0 1
vn 0 0 1
vn 0 0 1
vn 0 0 1
vn 0 0 1
vn 0 0 1
vn 0 0 1
vn 0 0 1
vn 0 0 1
vn 0 0 1
vn 0 0 1
vn 0 0 1
vn 0 0 1
vn 0 0 1
vn 0 0 1
vn 0 0 1
vn 0 0 1
vn 0 0 1
vn 0 0 1
vn 0 0 1
vn 0 0 1
vn 0 0 1
vn 0 0 1
vn 0 0 1
vn 0 0 1
vn 0 0 1
vn 0 0 1
vn 0 0 1
vn 0 0 1
vn 0 0 1
vn 0 0 1
vn 0 0 1
vn 0 0 1
vn 0 0 1
vn 0 0 1
vn 0 0 1
vn 0 0 1
vn 0 0 1
vn 0 0 1
vn 0 0 1
vn 0 0 1
vn 0 0 1
vn 0 0 1
vn 0 0 1
vn 0 0 1
vn 0 0 1
vn 0 0 1
vn 0 0 1
vn 0 0 1
vn 0 0 1
vn 0 0 1
vn 0 0 1
vn 0 0 1
vn 0 0 1
vn 0 0 1
vn 0 0 1
vn 0 0 1
vn 0 0 1
vn 0 0 1
vn 0 0 1
vn 0 0 1
vn 0 0 1
vn 0 0 1
vn 0 0 1
vn 0 0 1
vn 0 0 1
vn 0 0 1
vn 0 0 1
vn 0 0 1
vn 0 0 1
vn 0 0 1
vn 0 0 1
vn 0 0 1
vn 0 0 1
vn 0 0 1
vn 0 0 1
vn 0 0 1
vn 0 0 1
vn 0 0 1
vn 0 0 1
vn 0 0 1
vn 0 0 1
vn 0 0 1
vn 0 0 1
vn 0 0 1
vn 0 0 1
vn 0 0 1
vn 0 0 1
vn 0 0 1
vn 0 0 1
vn 0 0 1
vn 0 0 1
vn 0 0 1
vn 0 0 1
vn 0 0 1
vn 0 0 1
vn 0 0 1
vn 0 0 1
vn 0 0 1
vn 0 0 1
vn 0 0 1
vn 0 0 1
vn 0 0 1
vn 0 0 1
vn 0 0 1
vn 0 0 1
vn 0 0 1
vn 0 0 1
vn 0 0 1
vn 0 0 1
vn 0 0 1
vn 0 0 1
vn 0 0 1
vn 0 0 1
vn 0 0 1
vn 0 0 1
vn 0 0 1
vn 0 0 1
vn 0 0 1
vn 0 0 1
vn 0 0 1
vn 0 0 1
vn 0 0 1
vn 0 0 1
vn 0 0 1
vn 0 0 1
vn 0 0 1
vn 0 0 1
vn 0 0 1
vn 0 0 1
vn 0 0 1
vn 0 0 1
vn 0 0 1
vn 0 0 1
vn 0 0 1
vn 0 0 1
vn 0 0 1
vn 0 0 1
vn 0 0 1
vn 0 0 1
vn 0 0 1
vn 0 0 1
vn 0 0 1
vn 0 0 1
vn 0 0 1
vn 0 0 1
vn 0 0 1
vn 0 0 1
vn 0 0 1
vn 0 0 1
vn 0 0 1
vn 0 0 1
vn 0 0 1
vn 0 0 1
vn 0 0 1
vn 0 0 1
vn 0 0 1
vn 0 0 1
vn 0 0 1
vn 0 0 1
vn 0 0 1
vn 0 0 1
vn 0 0 1
vn 0 0 1
vn 0 0 1
vn 0 0 1
vn 0 0 1
vn 0 0 1
vn 0 0 1
vn 0 0 1
vn 0 0 1
vn 0 0 1
vn 0 0 1
vn 0 0 1
vn 0 0 1
vn 0 0 1
vn 0 0 1
vn 0 0 1
vn 0 0 1
vn 0 0 1
vn 0 0 1
vn 0 0 1
vn 0 0 1
vn 0 0 1
vn 0 0 1
vn 0 0 1
vn 0 0 1
vn 0 0 1
vn 0 0 1
vn 0 0 1
vn 0 0 1
usemtl target
s 1
f 69//193 136//194 135//195
f 70//196 69//197 135//198
f 71//199 70//200 135//201
f 71//202 135//203 134//204
f 71//205 134//206 133//207
f 72//208 71//209 133//210
f 72//211 133//212 73//213
f 73//214 133//215 132//216
f 73//217 132//218 74//219
f 74//220 132//221 131//222
f 74//223 131//224 130//225
f 75//226 74//227 130//228
f 75//229 130//230 76//231
f 76//232 130//233 129//234
f 76//235 129//236 128//237
f 77//238 76//239 128//240
f 128//241 127//242 78//243
f 77//244 128//245 78//246
f 78//247 127//248 126//249
f 78//250 126//251 79//252
f 126//253 125//254 80//255
f 79//256 126//257 80//258
f 80//259 125//260 124//261
f 80//262 124//263 81//264
f 81//265 124//266 123//267
f 81//268 123//269 82//270
f 123//271 122//272 83//273
f 82//274 123//275 83//276
f 122//277 121//278 83//279
f 83//280 121//281 84//282
f 121//283 120//284 85//285
f 84//286 121//287 85//288
f 118//289 87//290 86//291
f 119//292 118//293 86//294
f 118//295 117//296 88//297
f 118//298 88//299 87//300
f 116//301 89//302 88//303
f 117//304 116//305 88//306
f 115//307 90//308 116//309
f 116//310 90//311 89//312
f 114//313 91//314 115//315
f 115//316 91//317 90//318
f 113//319 92//320 91//321
f 114//322 113//323 91//324
f 112//325 93//326 113//327
f 113//328 93//329 92//330
f 111//331 94//332 93//333
f 112//334 111//335 93//336
f 95//337 94//338 111//339
f 110//340 95//341 111//342
f 109//343 96//344 95//345
f 109//346 95//347 110//348
f 97//349 96//350 109//351
f 108//352 97//353 109//354
f 107//355 98//356 97//357
f 107//358 97//359 108//360
f 106//361 99//362 98//363
f 106//364 98//365 107//366
f 100//367 99//368 106//369
f 105//370 100//371 106//372
f 101//373 100//374 104//375
f 104//376 100//377 105//378
f 102//379 101//380 104//381
f 103//382 102//383 104//384
